<svg width="173" height="55" viewBox="0 0 173 55" fill="none" xmlns="http://www.w3.org/2000/svg">
<path d="M53.419 31.3656C53.6986 31.81 53.8778 32.2903 53.9566 32.8088C54.0355 33.3273 54.0068 33.841 53.8706 34.3475C53.7368 34.8564 53.505 35.3176 53.1729 35.7285C52.8432 36.1395 52.4418 36.4621 51.9711 36.6986C51.3045 37.0451 50.6976 37.4799 50.1552 38.0008C49.6104 38.5217 49.1517 39.1071 48.7741 39.7618C48.399 40.4141 48.1218 41.107 47.9426 41.8381C47.7658 42.5716 47.6918 43.3147 47.7252 44.0674C47.7539 44.5906 47.675 45.0996 47.4863 45.587C47.2975 46.0768 47.018 46.5069 46.6452 46.8749C46.2797 47.25 45.852 47.5319 45.3645 47.7207C44.8771 47.9094 44.3706 47.9907 43.8497 47.9596C43.1018 47.9286 42.3635 48.0026 41.6372 48.1818C40.9108 48.3634 40.2251 48.6406 39.5775 49.0157C38.9276 49.3885 38.3446 49.8472 37.8261 50.3896C37.3077 50.9296 36.8752 51.5317 36.5263 52.1959C36.4069 52.4277 36.2659 52.6427 36.1034 52.8434C35.9409 53.0442 35.757 53.2257 35.5563 53.3882C35.3556 53.5507 35.1381 53.6917 34.9087 53.8087C34.677 53.9258 34.438 54.019 34.1872 54.0859C33.9387 54.1528 33.6854 54.191 33.4274 54.2054C33.1693 54.2197 32.9113 54.2054 32.6556 54.1648C32.3999 54.1241 32.1514 54.0572 31.9101 53.9664C31.6688 53.8733 31.4394 53.7562 31.2244 53.6152C30.5888 53.2114 29.9102 52.9056 29.1887 52.6953C28.4671 52.485 27.7311 52.3799 26.9785 52.3799C26.2282 52.3799 25.4899 52.485 24.7684 52.6953C24.0468 52.9056 23.3682 53.2114 22.735 53.6152C22.2978 53.9043 21.8223 54.0883 21.3038 54.1695C20.7877 54.2532 20.2788 54.2221 19.7746 54.0811C19.2633 53.9521 18.8022 53.7251 18.3888 53.3954C17.9778 53.0657 17.6505 52.6666 17.4092 52.1959C17.0627 51.5269 16.6279 50.92 16.107 50.3753C15.5885 49.8305 15.0007 49.3693 14.3508 48.9918C13.6985 48.6143 13.008 48.3371 12.2769 48.1555C11.5457 47.9763 10.805 47.9047 10.0548 47.9381C9.7991 47.9453 9.54583 47.9286 9.29256 47.8856C9.04167 47.8425 8.79796 47.7733 8.55903 47.6801C8.32248 47.5845 8.09549 47.4674 7.88284 47.3264C7.6678 47.1855 7.47187 47.0254 7.29028 46.8438C7.11108 46.6622 6.951 46.4639 6.81002 46.2488C6.67144 46.0338 6.55436 45.8068 6.46118 45.5679C6.36799 45.3313 6.30109 45.0852 6.25808 44.832C6.21508 44.5787 6.20074 44.323 6.2103 44.0674C6.24375 43.3147 6.17207 42.5716 5.99287 41.8381C5.81606 41.1046 5.53889 40.4117 5.16376 39.7594C4.78625 39.1071 4.32749 38.5193 3.78272 37.9984C3.23795 37.4776 2.63344 37.0451 1.96443 36.6986C1.51045 36.4525 1.12338 36.1252 0.805593 35.719C0.48542 35.3128 0.260822 34.8588 0.129407 34.3571C-0.00678524 33.8505 -0.0354573 33.3368 0.0457803 32.8183C0.127018 32.2974 0.308608 31.8196 0.592941 31.3775C0.99913 30.742 1.30736 30.061 1.51762 29.337C1.72788 28.6131 1.83301 27.8724 1.83301 27.1173C1.83301 26.3623 1.72788 25.624 1.51762 24.9C1.30736 24.1761 0.99913 23.4951 0.592941 22.8595C0.308608 22.4199 0.124629 21.942 0.0457803 21.4235C-0.0354573 20.9074 -0.00917505 20.3937 0.129407 19.8896C0.256043 19.383 0.480642 18.9219 0.800814 18.5109C1.1186 18.0976 1.50806 17.7654 1.96443 17.5169C2.63344 17.1705 3.23795 16.7356 3.78272 16.2148C4.32749 15.6939 4.78625 15.1085 5.16376 14.4538C5.53889 13.8015 5.81606 13.1086 5.99287 12.3751C6.17207 11.6439 6.24375 10.9008 6.2103 10.1458C6.19835 9.88776 6.21269 9.62971 6.25569 9.37644C6.29631 9.12078 6.36561 8.87228 6.45879 8.63096C6.55197 8.38963 6.66905 8.16026 6.81002 7.94283C6.951 7.72779 7.11108 7.52708 7.29506 7.3431C7.47665 7.16151 7.67497 6.99903 7.8924 6.85806C8.10744 6.71709 8.33682 6.59762 8.57575 6.50444C8.81708 6.41125 9.06318 6.34435 9.31884 6.30134C9.57211 6.25834 9.83016 6.244 10.0858 6.25595C10.8337 6.28462 11.5696 6.21055 12.296 6.03135C13.0223 5.85215 13.7081 5.57737 14.3556 5.20225C15.0031 4.82951 15.5885 4.37314 16.107 3.83315C16.6255 3.29316 17.0603 2.69104 17.4092 2.02919C17.5286 1.79981 17.6696 1.58477 17.8321 1.38407C17.9946 1.18336 18.1785 1.00177 18.3792 0.841686C18.5799 0.67921 18.795 0.538239 19.0244 0.421161C19.2537 0.304083 19.4927 0.210898 19.7412 0.143996C19.9897 0.0770945 20.2429 0.0364753 20.501 0.0221395C20.759 0.00780311 21.0147 0.0197502 21.2704 0.0579797C21.5236 0.0985991 21.7721 0.163111 22.0134 0.253906C22.2548 0.344701 22.4841 0.45939 22.7016 0.597972C23.3347 1.00416 24.0133 1.31478 24.7349 1.52504C25.4565 1.73769 26.1948 1.84282 26.9474 1.84282C27.6977 1.84282 28.436 1.73769 29.1576 1.52504C29.8792 1.31478 30.5577 1.00416 31.1909 0.597972C31.4084 0.457001 31.6401 0.339923 31.8838 0.246738C32.1252 0.153553 32.376 0.0866517 32.6317 0.046033C32.8898 0.00541422 33.1478 -0.00892232 33.4082 0.00541407C33.6687 0.0197498 33.9243 0.0603697 34.1752 0.127271C34.4261 0.194173 34.6674 0.287357 34.8992 0.404435C35.131 0.523902 35.3484 0.664874 35.5515 0.82735C35.7546 0.992215 35.9362 1.17619 36.101 1.3769C36.2659 1.57999 36.4069 1.79742 36.5263 2.02919C36.8728 2.69821 37.3053 3.3051 37.8261 3.84987C38.3446 4.39465 38.93 4.85579 39.5799 5.23331C40.2298 5.61082 40.9204 5.88799 41.6491 6.06719C42.3802 6.24639 43.1209 6.32046 43.8712 6.28701C44.1292 6.27506 44.3849 6.2894 44.6406 6.33241C44.8938 6.37303 45.1423 6.43993 45.3837 6.53311C45.6226 6.6263 45.852 6.74576 46.0694 6.88674C46.2844 7.02771 46.4851 7.19018 46.6667 7.37177C46.8483 7.55575 47.0108 7.75646 47.1518 7.97389C47.2927 8.19132 47.4098 8.4207 47.503 8.66202C47.5962 8.90334 47.6631 9.15184 47.7037 9.4075C47.7467 9.66316 47.7611 9.92121 47.7467 10.1793C47.7157 10.9295 47.7897 11.6678 47.9689 12.3966C48.1457 13.1253 48.4229 13.8135 48.7956 14.4634C49.1708 15.1133 49.6271 15.6987 50.1671 16.2171C50.7071 16.7356 51.3068 17.1681 51.9711 17.5169C52.2005 17.634 52.4131 17.7774 52.6138 17.9399C52.8121 18.1047 52.9937 18.2863 53.1538 18.487C53.3163 18.6901 53.4549 18.9052 53.5719 19.1369C53.689 19.3663 53.7822 19.6076 53.8491 19.8561C53.916 20.107 53.9566 20.3603 53.971 20.6183C53.9853 20.8764 53.9734 21.1344 53.9327 21.3901C53.8945 21.6457 53.83 21.8942 53.7392 22.1356C53.6484 22.3769 53.5337 22.6086 53.3951 22.8261C52.9866 23.464 52.6759 24.1474 52.4633 24.8761C52.2506 25.6025 52.1455 26.3456 52.1479 27.1054C52.1503 27.8628 52.2602 28.6059 52.4752 29.3323C52.6903 30.061 53.0057 30.742 53.419 31.3775V31.3656Z" fill="#FF7D7D"/>
<path d="M26.9136 22.6319C24.5491 22.6319 22.6319 24.5491 22.6319 26.9136C22.6319 29.2794 24.5491 31.1953 26.9136 31.1953C29.2791 31.1953 31.1953 29.2791 31.1953 26.9136C31.1953 24.5491 29.2791 22.6319 26.9136 22.6319ZM26.9136 29.0546C25.7312 29.0546 24.7729 28.0973 24.7729 26.9136C24.7729 25.7312 25.7312 24.7726 26.9136 24.7726C28.0973 24.7726 29.0546 25.7312 29.0546 26.9136C29.0546 28.0973 28.0973 29.0546 26.9136 29.0546Z" fill="white"/>
<path d="M38.2206 27.2195C41.2443 22.1737 41.94 17.3182 39.5308 14.9091C37.1202 12.4985 32.264 13.1939 27.2195 16.2176C22.175 13.1946 17.3187 12.4992 14.9085 14.9094C12.4993 17.3186 13.195 22.1755 16.218 27.2192C13.1946 32.2643 12.4982 37.1201 14.9085 39.5307C17.3187 41.9399 22.175 41.2441 27.2195 38.2211C32.2653 41.2452 37.1202 41.9399 39.5305 39.5307C41.9397 37.1201 41.2457 32.2653 38.2206 27.2195ZM35.4873 15.7472C36.5725 15.7472 37.3869 16.0115 37.9078 16.5317C39.2752 17.899 38.8699 21.2417 36.8068 25.0722C35.8189 23.7124 34.6708 22.362 33.3736 21.0645C32.0737 19.7646 30.7194 18.615 29.3572 17.6248C31.5765 16.425 33.7146 15.7472 35.4873 15.7472ZM35.5065 27.2195C34.4908 28.7259 33.2394 30.2649 31.7513 31.7533C30.3065 33.1991 28.764 34.4522 27.2195 35.4965C25.6753 34.4519 24.1328 33.1984 22.687 31.7513C21.2006 30.2652 19.9505 28.7296 18.9362 27.2247C19.9901 25.6623 21.2567 24.1167 22.6856 22.6864C24.1328 21.2406 25.6739 19.9879 27.2195 18.9422C28.763 19.9879 30.3051 21.2406 31.7513 22.6864C33.2394 24.1749 34.4908 25.7128 35.5065 27.2195ZM16.5322 16.5317C17.0521 16.0115 17.8651 15.7472 18.9513 15.7472C20.7244 15.7472 22.8625 16.4254 25.0821 17.6248C23.7182 18.6147 22.3642 19.7646 21.0636 21.0645C19.7665 22.3616 18.6197 23.7121 17.6318 25.0722C15.5694 21.2417 15.1638 17.899 16.5322 16.5317ZM18.9517 38.6908C17.8654 38.6908 17.0521 38.4272 16.5315 37.908C15.5629 36.9391 15.491 34.8417 16.3378 32.298C16.655 31.3504 17.1019 30.3671 17.6359 29.3737C18.6224 30.7308 19.7692 32.0781 21.0643 33.3739C22.3656 34.6741 23.7189 35.8247 25.0828 36.8146C22.8628 38.014 20.7257 38.6908 18.9517 38.6908ZM37.9078 37.9077C37.3869 38.4272 36.5738 38.6915 35.4873 38.6915C33.7146 38.6915 31.5765 38.0137 29.3576 36.8143C30.7198 35.8254 32.074 34.6752 33.3739 33.3763C34.6711 32.0781 35.8189 30.7273 36.8071 29.3679C38.8699 33.1984 39.2752 36.5404 37.9078 37.9077Z" fill="white"/>
<path d="M77.0625 17.2656L69.5312 38H66.4531L75.125 15.25H77.1094L77.0625 17.2656ZM83.375 38L75.8281 17.2656L75.7812 15.25H77.7656L86.4688 38H83.375ZM82.9844 29.5781V32.0469H70.2031V29.5781H82.9844ZM93.3906 38H90.5V19.3125C90.5 18.0938 90.7188 17.0677 91.1562 16.2344C91.6042 15.3906 92.2448 14.7552 93.0781 14.3281C93.9115 13.8906 94.901 13.6719 96.0469 13.6719C96.3802 13.6719 96.7135 13.6927 97.0469 13.7344C97.3906 13.776 97.724 13.8385 98.0469 13.9219L97.8906 16.2812C97.6719 16.2292 97.4219 16.1927 97.1406 16.1719C96.8698 16.151 96.599 16.1406 96.3281 16.1406C95.7135 16.1406 95.1823 16.2656 94.7344 16.5156C94.2969 16.7552 93.9635 17.1094 93.7344 17.5781C93.5052 18.0469 93.3906 18.625 93.3906 19.3125V38ZM97.1406 21.0938V23.3125H87.8281V21.0938H97.1406ZM102.531 38H99.6406V19.625C99.6406 18.3438 99.8854 17.2604 100.375 16.375C100.875 15.4896 101.589 14.8177 102.516 14.3594C103.443 13.901 104.542 13.6719 105.812 13.6719C106.573 13.6719 107.312 13.7656 108.031 13.9531C108.75 14.1302 109.49 14.3542 110.25 14.625L109.75 17.0625C109.281 16.875 108.729 16.6979 108.094 16.5312C107.458 16.3542 106.771 16.2656 106.031 16.2656C104.792 16.2656 103.896 16.5469 103.344 17.1094C102.802 17.6615 102.531 18.5 102.531 19.625V38ZM105.984 21.0938V23.3125H96.9688V21.0938H105.984ZM111.672 21.0938V38H108.781V21.0938H111.672ZM119.531 14V38H116.625V14H119.531ZM127.312 21.0938V38H124.406V21.0938H127.312ZM124.188 16.6094C124.188 16.1406 124.328 15.7448 124.609 15.4219C124.901 15.099 125.328 14.9375 125.891 14.9375C126.443 14.9375 126.865 15.099 127.156 15.4219C127.458 15.7448 127.609 16.1406 127.609 16.6094C127.609 17.0573 127.458 17.4427 127.156 17.7656C126.865 18.0781 126.443 18.2344 125.891 18.2344C125.328 18.2344 124.901 18.0781 124.609 17.7656C124.328 17.4427 124.188 17.0573 124.188 16.6094ZM135.094 14V38H132.188V14H135.094ZM149.703 35.1094V26.4062C149.703 25.7396 149.568 25.1615 149.297 24.6719C149.036 24.1719 148.641 23.7865 148.109 23.5156C147.578 23.2448 146.922 23.1094 146.141 23.1094C145.411 23.1094 144.771 23.2344 144.219 23.4844C143.677 23.7344 143.25 24.0625 142.938 24.4688C142.635 24.875 142.484 25.3125 142.484 25.7812H139.594C139.594 25.1771 139.75 24.5781 140.062 23.9844C140.375 23.3906 140.823 22.8542 141.406 22.375C142 21.8854 142.708 21.5 143.531 21.2188C144.365 20.9271 145.292 20.7812 146.312 20.7812C147.542 20.7812 148.625 20.9896 149.562 21.4062C150.51 21.8229 151.25 22.4531 151.781 23.2969C152.323 24.1302 152.594 25.1771 152.594 26.4375V34.3125C152.594 34.875 152.641 35.474 152.734 36.1094C152.839 36.7448 152.99 37.2917 153.188 37.75V38H150.172C150.026 37.6667 149.911 37.224 149.828 36.6719C149.745 36.1094 149.703 35.5885 149.703 35.1094ZM150.203 27.75L150.234 29.7812H147.312C146.49 29.7812 145.755 29.849 145.109 29.9844C144.464 30.1094 143.922 30.3021 143.484 30.5625C143.047 30.8229 142.714 31.151 142.484 31.5469C142.255 31.9323 142.141 32.3854 142.141 32.9062C142.141 33.4375 142.26 33.9219 142.5 34.3594C142.74 34.7969 143.099 35.1458 143.578 35.4062C144.068 35.6562 144.667 35.7812 145.375 35.7812C146.26 35.7812 147.042 35.5938 147.719 35.2188C148.396 34.8438 148.932 34.3854 149.328 33.8438C149.734 33.3021 149.953 32.776 149.984 32.2656L151.219 33.6562C151.146 34.0938 150.948 34.5781 150.625 35.1094C150.302 35.6406 149.87 36.151 149.328 36.6406C148.797 37.1198 148.161 37.5208 147.422 37.8438C146.693 38.1562 145.87 38.3125 144.953 38.3125C143.807 38.3125 142.802 38.0885 141.938 37.6406C141.083 37.1927 140.417 36.5938 139.938 35.8438C139.469 35.0833 139.234 34.2344 139.234 33.2969C139.234 32.3906 139.411 31.5938 139.766 30.9062C140.12 30.2083 140.63 29.6302 141.297 29.1719C141.964 28.7031 142.766 28.349 143.703 28.1094C144.641 27.8698 145.688 27.75 146.844 27.75H150.203ZM157.125 14H160.031V34.7188L159.781 38H157.125V14ZM171.453 29.4062V29.7344C171.453 30.9635 171.307 32.1042 171.016 33.1562C170.724 34.1979 170.297 35.1042 169.734 35.875C169.172 36.6458 168.484 37.2448 167.672 37.6719C166.859 38.099 165.927 38.3125 164.875 38.3125C163.802 38.3125 162.859 38.1302 162.047 37.7656C161.245 37.3906 160.568 36.8542 160.016 36.1562C159.464 35.4583 159.021 34.6146 158.688 33.625C158.365 32.6354 158.141 31.5208 158.016 30.2812V28.8438C158.141 27.5938 158.365 26.474 158.688 25.4844C159.021 24.4948 159.464 23.651 160.016 22.9531C160.568 22.2448 161.245 21.7083 162.047 21.3438C162.849 20.9688 163.781 20.7812 164.844 20.7812C165.906 20.7812 166.849 20.9896 167.672 21.4062C168.495 21.8125 169.182 22.3958 169.734 23.1562C170.297 23.9167 170.724 24.8281 171.016 25.8906C171.307 26.9427 171.453 28.1146 171.453 29.4062ZM168.547 29.7344V29.4062C168.547 28.5625 168.469 27.7708 168.312 27.0312C168.156 26.2812 167.906 25.625 167.562 25.0625C167.219 24.4896 166.766 24.0417 166.203 23.7188C165.641 23.3854 164.948 23.2188 164.125 23.2188C163.396 23.2188 162.76 23.3438 162.219 23.5938C161.688 23.8438 161.234 24.1823 160.859 24.6094C160.484 25.026 160.177 25.5052 159.938 26.0469C159.708 26.5781 159.536 27.1302 159.422 27.7031V31.4688C159.589 32.1979 159.859 32.901 160.234 33.5781C160.62 34.2448 161.13 34.7917 161.766 35.2188C162.411 35.6458 163.208 35.8594 164.156 35.8594C164.938 35.8594 165.604 35.7031 166.156 35.3906C166.719 35.0677 167.172 34.625 167.516 34.0625C167.87 33.5 168.13 32.849 168.297 32.1094C168.464 31.3698 168.547 30.5781 168.547 29.7344Z" fill="#FF7D7D"/>
</svg>
