<?xml version="1.0" standalone="no"?>
<!DOCTYPE svg PUBLIC "-//W3C//DTD SVG 1.0//EN" "http://www.w3.org/TR/2001/REC-SVG-20010904/DTD/svg10.dtd">
<svg xmlns="http://www.w3.org/2000/svg" xmlns:xlink="http://www.w3.org/1999/xlink" id="body_1" width="89" height="89">

<g transform="matrix(1 0 0 1 0 0)">
    <path d="M87.3327 51.2784C 87.7897 52.0049 88.0827 52.7901 88.2116 53.6378C 88.3405 54.4854 88.2936 55.3253 88.0709 56.1534C 87.8522 56.9854 87.4733 57.7393 86.9303 58.4112C 86.3913 59.0831 85.735 59.6104 84.9655 59.9971C 83.8756 60.5635 82.8834 61.2745 81.9967 62.126C 81.1061 62.9776 80.3561 63.9346 79.7389 65.0049C 79.1256 66.0713 78.6725 67.2042 78.3795 68.3995C 78.0905 69.5987 77.9694 70.8135 78.0241 72.044C 78.0709 72.8995 77.942 73.7315 77.6334 74.5284C 77.3248 75.3292 76.8678 76.0323 76.2584 76.6339C 75.6608 77.2471 74.9616 77.7081 74.1647 78.0167C 73.3678 78.3253 72.5397 78.4581 71.6881 78.4073C 70.4655 78.3565 69.2584 78.4776 68.0709 78.7706C 66.8834 79.0674 65.7623 79.5206 64.7038 80.1339C 63.6413 80.7432 62.6881 81.4932 61.8405 82.3799C 60.9928 83.2628 60.2858 84.2471 59.7155 85.3331C 59.5202 85.712 59.2897 86.0635 59.0241 86.3917C 58.7584 86.7198 58.4577 87.0167 58.1295 87.2823C 57.8014 87.5479 57.4459 87.7784 57.0709 87.9698C 56.692 88.1612 56.3014 88.3135 55.8912 88.4229C 55.485 88.5323 55.0709 88.5948 54.6491 88.6182C 54.2272 88.6417 53.8053 88.6182 53.3873 88.5518C 52.9694 88.4854 52.5631 88.376 52.1686 88.2276C 51.7741 88.0753 51.3991 87.8839 51.0475 87.6534C 50.0084 86.9932 48.8991 86.4932 47.7194 86.1495C 46.5397 85.8057 45.3366 85.6339 44.1061 85.6339C 42.8795 85.6339 41.6725 85.8057 40.4928 86.1495C 39.3131 86.4932 38.2037 86.9932 37.1686 87.6534C 36.4537 88.126 35.6764 88.4268 34.8287 88.5596C 33.985 88.6964 33.153 88.6456 32.3287 88.4151C 31.4928 88.2042 30.7389 87.8331 30.0631 87.294C 29.3912 86.7549 28.8561 86.1026 28.4616 85.3331C 27.8952 84.2393 27.1842 83.2471 26.3327 82.3565C 25.485 81.4659 24.5241 80.712 23.4616 80.0948C 22.3952 79.4776 21.2663 79.0245 20.0709 78.7276C 18.8756 78.4346 17.6647 78.3174 16.4381 78.3721C 16.0202 78.3839 15.6061 78.3565 15.192 78.2862C 14.7819 78.2159 14.3834 78.1026 13.9928 77.9503C 13.6061 77.794 13.235 77.6026 12.8873 77.3721C 12.5358 77.1417 12.2155 76.8799 11.9186 76.5831C 11.6256 76.2862 11.3639 75.962 11.1334 75.6104C 10.9069 75.2589 10.7155 74.8878 10.5631 74.4971C 10.4108 74.1104 10.3014 73.7081 10.2311 73.294C 10.1608 72.8799 10.1373 72.462 10.153 72.044C 10.2077 70.8135 10.0905 69.5987 9.7975 68.3995C 9.50844 67.2003 9.05531 66.0674 8.44203 65.001C 7.82484 63.9346 7.07484 62.9737 6.18422 62.1221C 5.29359 61.2706 4.30531 60.5635 3.21156 59.9971C 2.46938 59.5948 1.83656 59.0596 1.31703 58.3956C 0.793594 57.7315 0.426407 56.9893 0.211563 56.169C -0.0110929 55.3409 -0.0579677 54.501 0.0748443 53.6534C 0.207657 52.8018 0.504532 52.0206 0.969376 51.2979C 1.63344 50.2589 2.13734 49.1456 2.48109 47.962C 2.82484 46.7784 2.99672 45.5674 2.99672 44.3331C 2.99672 43.0987 2.82484 41.8917 2.48109 40.7081C 2.13734 39.5245 1.63344 38.4112 0.969376 37.3721C 0.504532 36.6534 0.20375 35.8721 0.0748443 35.0245C -0.0579677 34.1807 -0.0149999 33.3409 0.211563 32.5167C 0.418594 31.6885 0.785783 30.9346 1.30922 30.2628C 1.82875 29.587 2.46547 29.044 3.21156 28.6378C 4.30531 28.0714 5.29359 27.3604 6.18422 26.5089C 7.07484 25.6573 7.82484 24.7003 8.44203 23.6299C 9.05531 22.5635 9.50844 21.4307 9.7975 20.2315C 10.0905 19.0362 10.2077 17.8214 10.153 16.587C 10.1334 16.1651 10.1569 15.7432 10.2272 15.3292C 10.2936 14.9112 10.4069 14.5049 10.5592 14.1104C 10.7116 13.7159 10.903 13.3409 11.1334 12.9854C 11.3639 12.6339 11.6256 12.3057 11.9264 12.0049C 12.2233 11.7081 12.5475 11.4424 12.903 11.212C 13.2545 10.9815 13.6295 10.7862 14.0202 10.6339C 14.4147 10.4815 14.817 10.3721 15.235 10.3018C 15.6491 10.2315 16.0709 10.2081 16.4889 10.2276C 17.7116 10.2745 18.9147 10.1534 20.1022 9.86041C 21.2897 9.56745 22.4108 9.11823 23.4694 8.50494C 24.528 7.89557 25.485 7.14948 26.3327 6.26666C 27.1803 5.38385 27.8912 4.39948 28.4616 3.31745C 28.6569 2.94245 28.8873 2.59088 29.153 2.26276C 29.4186 1.93463 29.7194 1.63776 30.0475 1.37604C 30.3756 1.11041 30.7272 0.879946 31.1022 0.688539C 31.4772 0.497133 31.8678 0.344789 32.2741 0.235414C 32.6803 0.126039 33.0944 0.059632 33.5162 0.036195C 33.9381 0.012757 34.3561 0.0322887 34.7741 0.0947887C 35.1881 0.161196 35.5944 0.266663 35.9889 0.415101C 36.3834 0.563538 36.7584 0.751038 37.1139 0.977601C 38.1491 1.64166 39.2584 2.14948 40.4381 2.49323C 41.6178 2.84088 42.8248 3.01276 44.0553 3.01276C 45.2819 3.01276 46.4889 2.84088 47.6686 2.49323C 48.8483 2.14948 49.9577 1.64166 50.9928 0.977601C 51.3483 0.747132 51.7272 0.555727 52.1256 0.403383C 52.5202 0.251039 52.9303 0.141663 53.3483 0.0752575C 53.7702 0.0088515 54.192 -0.0145868 54.6178 0.00885125C 55.0436 0.0322882 55.4616 0.098696 55.8717 0.20807C 56.2819 0.317446 56.6764 0.469788 57.0553 0.661195C 57.4342 0.856507 57.7897 1.08698 58.1217 1.3526C 58.4538 1.62213 58.7506 1.92291 59.0202 2.25104C 59.2897 2.58307 59.5202 2.93854 59.7155 3.31745C 60.2819 4.4112 60.9889 5.40338 61.8405 6.29401C 62.6881 7.18463 63.6452 7.93854 64.7077 8.55573C 65.7702 9.17291 66.8991 9.62604 68.0905 9.91901C 69.2858 10.212 70.4967 10.3331 71.7233 10.2784C 72.1452 10.2589 72.5631 10.2823 72.9811 10.3526C 73.3952 10.419 73.8014 10.5284 74.1959 10.6807C 74.5866 10.8331 74.9616 11.0284 75.317 11.2589C 75.6686 11.4893 75.9967 11.7549 76.2936 12.0518C 76.5905 12.3526 76.8561 12.6807 77.0866 13.0362C 77.317 13.3917 77.5084 13.7667 77.6608 14.1612C 77.8131 14.5557 77.9225 14.962 77.9889 15.3799C 78.0592 15.7979 78.0827 16.2198 78.0592 16.6417C 78.0084 17.8682 78.1295 19.0753 78.4225 20.2667C 78.7116 21.4581 79.1647 22.5831 79.7741 23.6456C 80.3873 24.7081 81.1334 25.6651 82.0163 26.5128C 82.8991 27.3604 83.8795 28.0674 84.9655 28.6378C 85.3405 28.8292 85.6881 29.0635 86.0163 29.3292C 86.3405 29.5987 86.6373 29.8956 86.8991 30.2237C 87.1647 30.5557 87.3912 30.9073 87.5827 31.2862C 87.7741 31.6612 87.9264 32.0557 88.0358 32.462C 88.1452 32.8721 88.2116 33.2862 88.235 33.7081C 88.2584 34.1299 88.2389 34.5518 88.1725 34.9698C 88.11 35.3878 88.0045 35.794 87.8561 36.1885C 87.7077 36.5831 87.5202 36.962 87.2936 37.3174C 86.6256 38.3604 86.1178 39.4776 85.7702 40.669C 85.4225 41.8565 85.2506 43.0714 85.2545 44.3135C 85.2584 45.5518 85.4381 46.7667 85.7897 47.9542C 86.1413 49.1456 86.6569 50.2589 87.3327 51.2979L87.3327 51.2979L87.3327 51.2784z" stroke="none" fill="#FF7D7D" fill-rule="nonzero" />
    <path d="M44 37C 40.1343 37 37 40.1343 37 44C 37 47.8678 40.1343 51 44 51C 47.8672 51 51 47.8672 51 44C 51 40.1343 47.8672 37 44 37zM44 47.5003C 42.0669 47.5003 40.5003 45.9352 40.5003 44C 40.5003 42.0669 42.0669 40.4997 44 40.4997C 45.9352 40.4997 47.5003 42.0669 47.5003 44C 47.5003 45.9352 45.9352 47.5003 44 47.5003z" stroke="none" fill="#FFFFFF" fill-rule="nonzero" />
    <path d="M62.4853 44.5001C 67.4287 36.251 68.5661 28.3129 64.6274 24.3743C 60.6864 20.4333 52.7471 21.5702 44.5 26.5135C 36.253 21.5713 28.3137 20.4345 24.3733 24.3748C 20.4345 28.3135 21.5719 36.2538 26.5142 44.4996C 21.5714 52.7476 20.4329 60.6862 24.3733 64.6272C 28.3137 68.5658 36.253 67.4284 44.5 62.4863C 52.7493 67.4301 60.6864 68.5658 64.6268 64.6272C 68.5656 60.6862 67.431 52.7493 62.4853 44.5001zM58.0167 25.7445C 59.7909 25.7445 61.1224 26.1765 61.974 27.027C 64.2094 29.2624 63.5468 34.7272 60.174 40.9895C 58.559 38.7665 56.6819 36.5587 54.5612 34.4375C 52.436 32.3123 50.222 30.433 47.995 28.8141C 51.6232 26.8527 55.1186 25.7445 58.0167 25.7445zM58.0482 44.5001C 56.3877 46.9628 54.3418 49.4789 51.9089 51.9123C 49.5469 54.2759 47.0252 56.3246 44.5 58.0318C 41.9755 56.324 39.4537 54.2748 37.09 51.9089C 34.66 49.4794 32.6164 46.969 30.9581 44.5086C 32.681 41.9542 34.7517 39.4275 37.0878 37.0891C 39.4537 34.7255 41.9732 32.6774 44.5 30.9679C 47.0235 32.6774 49.5447 34.7255 51.9089 37.0891C 54.3418 39.5225 56.3877 42.0369 58.0482 44.5001zM27.0278 27.027C 27.8777 26.1765 29.207 25.7445 30.9828 25.7445C 33.8815 25.7445 37.3769 26.8532 41.0057 28.8141C 38.7759 30.4324 36.5624 32.3123 34.4361 34.4375C 32.3154 36.5581 30.4406 38.766 28.8256 40.9895C 25.4539 34.7272 24.7907 29.2624 27.0278 27.027zM30.9834 63.2541C 29.2075 63.2541 27.8777 62.8232 27.0266 61.9744C 25.4432 60.3904 25.3256 56.9613 26.71 52.8027C 27.2286 51.2536 27.9593 49.6459 28.8323 48.022C 30.4451 50.2405 32.3199 52.4433 34.4372 54.5617C 36.5646 56.6874 38.777 58.5684 41.0068 60.1867C 37.3775 62.1476 33.8837 63.2541 30.9834 63.2541zM61.974 61.9738C 61.1224 62.8232 59.7931 63.2552 58.0167 63.2552C 55.1186 63.2552 51.6232 62.1471 47.9955 60.1862C 50.2225 58.5695 52.4366 56.6891 54.5618 54.5656C 56.6824 52.4433 58.559 50.2349 60.1745 48.0124C 63.5468 54.2748 64.2094 59.7384 61.974 61.9738z" stroke="none" fill="#FFFFFF" fill-rule="nonzero" />
</g>
</svg>