<svg width="304" height="120" viewBox="0 0 304 120" fill="none" xmlns="http://www.w3.org/2000/svg">
<g opacity="0.3">
<path opacity="0.46" d="M104.642 119.506L303.922 13.0801V119.506H104.642Z" fill="#E3E9F6"/>
<path d="M184.908 29.8654H116.873C116.861 29.8658 116.85 29.8615 116.839 29.8527C116.828 29.8438 116.818 29.8307 116.81 29.814C116.801 29.7974 116.795 29.7775 116.791 29.7557C116.786 29.7338 116.784 29.7104 116.784 29.6869C116.784 29.6634 116.786 29.6402 116.791 29.6185C116.795 29.5969 116.802 29.5772 116.81 29.5606C116.819 29.544 116.828 29.5309 116.839 29.5219C116.85 29.5129 116.862 29.5083 116.873 29.5083H184.908C184.919 29.5083 184.931 29.5129 184.942 29.5219C184.953 29.5309 184.962 29.544 184.971 29.5606C184.979 29.5772 184.985 29.5969 184.99 29.6185C184.994 29.6402 184.997 29.6634 184.997 29.6869C184.997 29.7104 184.995 29.7338 184.99 29.7557C184.986 29.7775 184.979 29.7974 184.971 29.814C184.963 29.8307 184.953 29.8438 184.942 29.8527C184.931 29.8615 184.919 29.8658 184.908 29.8654V29.8654Z" fill="#9BCAFE"/>
<path d="M184.908 36.6508H116.873C116.861 36.6512 116.85 36.6469 116.839 36.638C116.828 36.6292 116.818 36.6161 116.81 36.5994C116.801 36.5828 116.795 36.5629 116.791 36.5411C116.786 36.5192 116.784 36.4958 116.784 36.4722C116.784 36.4249 116.794 36.3795 116.81 36.346C116.827 36.3125 116.85 36.2937 116.873 36.2937H184.908C184.931 36.2937 184.954 36.3125 184.971 36.346C184.987 36.3795 184.997 36.4249 184.997 36.4722C184.997 36.4958 184.995 36.5192 184.99 36.5411C184.986 36.5629 184.979 36.5828 184.971 36.5994C184.963 36.6161 184.953 36.6292 184.942 36.638C184.931 36.6469 184.919 36.6512 184.908 36.6508Z" fill="#9BCAFE"/>
<path d="M184.908 50.5791H116.873C116.85 50.5791 116.827 50.5602 116.81 50.5267C116.794 50.4933 116.784 50.4479 116.784 50.4005C116.784 50.3769 116.786 50.3535 116.791 50.3317C116.795 50.3098 116.801 50.29 116.81 50.2733C116.818 50.2567 116.828 50.2435 116.839 50.2347C116.85 50.2259 116.861 50.2215 116.873 50.222H184.908C184.919 50.2215 184.931 50.2259 184.942 50.2347C184.953 50.2435 184.963 50.2567 184.971 50.2733C184.979 50.29 184.986 50.3098 184.99 50.3317C184.995 50.3535 184.997 50.3769 184.997 50.4005C184.997 50.4479 184.987 50.4933 184.971 50.5267C184.954 50.5602 184.931 50.5791 184.908 50.5791V50.5791Z" fill="#9BCAFE"/>
<path d="M184.896 64.5058H116.885C116.872 64.5091 116.859 64.5069 116.847 64.4996C116.835 64.4922 116.824 64.4797 116.814 64.4629C116.805 64.4462 116.797 64.4255 116.792 64.4024C116.787 64.3792 116.784 64.3541 116.784 64.3287C116.784 64.3033 116.787 64.2782 116.792 64.255C116.797 64.2319 116.805 64.2112 116.814 64.1945C116.824 64.1777 116.835 64.1652 116.847 64.1579C116.859 64.1505 116.872 64.1484 116.885 64.1517H184.896C184.909 64.1484 184.921 64.1505 184.934 64.1579C184.946 64.1652 184.957 64.1777 184.966 64.1945C184.976 64.2112 184.984 64.2319 184.989 64.255C184.994 64.2782 184.997 64.3033 184.997 64.3287C184.997 64.3541 184.994 64.3792 184.989 64.4024C184.984 64.4255 184.976 64.4462 184.966 64.4629C184.957 64.4797 184.946 64.4922 184.934 64.4996C184.921 64.5069 184.909 64.5091 184.896 64.5058V64.5058Z" fill="#9BCAFE"/>
<path d="M184.908 78.4352H116.873C116.861 78.4356 116.85 78.4313 116.839 78.4225C116.828 78.4136 116.818 78.4005 116.81 78.3838C116.801 78.3672 116.795 78.3473 116.791 78.3255C116.786 78.3036 116.784 78.2802 116.784 78.2567C116.784 78.2093 116.794 78.1639 116.81 78.1304C116.827 78.0969 116.85 78.0781 116.873 78.0781H184.908C184.931 78.0781 184.954 78.0969 184.971 78.1304C184.987 78.1639 184.997 78.2093 184.997 78.2567C184.997 78.2802 184.995 78.3036 184.99 78.3255C184.986 78.3473 184.979 78.3672 184.971 78.3838C184.963 78.4005 184.953 78.4136 184.942 78.4225C184.931 78.4313 184.919 78.4356 184.908 78.4352Z" fill="#9BCAFE"/>
<path d="M123.034 84.1498C122.987 84.1494 122.942 84.1399 122.909 84.1232C122.875 84.1065 122.856 84.084 122.855 84.0605V25.6692C122.855 25.6574 122.86 25.6458 122.869 25.635C122.878 25.6242 122.891 25.6143 122.908 25.606C122.924 25.5977 122.944 25.5911 122.966 25.5866C122.987 25.5822 123.011 25.5798 123.034 25.5798C123.058 25.5796 123.081 25.5818 123.103 25.5862C123.125 25.5906 123.144 25.5972 123.161 25.6056C123.178 25.6139 123.191 25.6238 123.2 25.6348C123.209 25.6457 123.213 25.6574 123.213 25.6692V84.0605C123.213 84.0841 123.194 84.1069 123.16 84.1236C123.127 84.1404 123.081 84.1498 123.034 84.1498V84.1498Z" fill="#9BCAFE"/>
<path d="M147.319 86.2926C147.272 86.2923 147.227 86.2828 147.194 86.2662C147.161 86.2496 147.141 86.2273 147.141 86.2039V28.1686C147.141 28.1451 147.159 28.1225 147.193 28.1059C147.226 28.0892 147.272 28.0798 147.319 28.0798C147.343 28.0796 147.366 28.0818 147.388 28.0862C147.41 28.0906 147.43 28.0971 147.446 28.1054C147.463 28.1137 147.476 28.1236 147.485 28.1344C147.494 28.1453 147.498 28.1569 147.498 28.1686V86.2039C147.498 86.2155 147.493 86.2271 147.484 86.2378C147.475 86.2486 147.462 86.2584 147.445 86.2667C147.429 86.2749 147.409 86.2814 147.388 86.2859C147.366 86.2903 147.343 86.2926 147.319 86.2926V86.2926Z" fill="#9BCAFE"/>
<path d="M155.533 86.2926C155.486 86.2923 155.441 86.2828 155.408 86.2662C155.374 86.2496 155.355 86.2273 155.354 86.2039V28.1686C155.354 28.1451 155.373 28.1225 155.407 28.1059C155.44 28.0892 155.486 28.0798 155.533 28.0798C155.557 28.0796 155.58 28.0818 155.602 28.0862C155.624 28.0906 155.644 28.0971 155.66 28.1054C155.677 28.1137 155.69 28.1236 155.699 28.1344C155.708 28.1453 155.712 28.1569 155.712 28.1686V86.2039C155.712 86.2155 155.707 86.2271 155.698 86.2378C155.689 86.2486 155.676 86.2584 155.659 86.2667C155.643 86.2749 155.623 86.2814 155.601 86.2859C155.58 86.2903 155.557 86.2926 155.533 86.2926V86.2926Z" fill="#9BCAFE"/>
<path d="M171.604 86.2926C171.557 86.2926 171.512 86.2833 171.478 86.2666C171.445 86.25 171.426 86.2274 171.426 86.2039V28.1686C171.426 28.1451 171.445 28.1225 171.478 28.1058C171.512 28.0892 171.557 28.0798 171.604 28.0798C171.652 28.0798 171.697 28.0892 171.731 28.1058C171.764 28.1225 171.783 28.1451 171.783 28.1686V86.2039C171.783 86.2274 171.764 86.25 171.731 86.2666C171.697 86.2833 171.652 86.2926 171.604 86.2926V86.2926Z" fill="#9BCAFE"/>
<path d="M179.818 86.2926C179.771 86.2926 179.725 86.2833 179.692 86.2666C179.658 86.25 179.64 86.2274 179.64 86.2039V28.1686C179.64 28.1451 179.658 28.1225 179.692 28.1058C179.725 28.0892 179.771 28.0798 179.818 28.0798C179.866 28.0798 179.911 28.0892 179.944 28.1058C179.978 28.1225 179.997 28.1451 179.997 28.1686V86.2039C179.997 86.2274 179.978 86.25 179.944 86.2666C179.911 86.2833 179.866 86.2926 179.818 86.2926V86.2926Z" fill="#9BCAFE"/>
<path d="M184.997 87.0068H116.427V27.0083H117.609V85.8237H184.997V87.0068Z" fill="#9BCAFE"/>
<path d="M120.533 84.8637C120.365 84.8639 120.201 84.8169 120.058 84.7282C119.916 84.6395 119.802 84.5126 119.729 84.3623C119.657 84.2119 119.628 84.0441 119.647 83.8783C119.666 83.7125 119.731 83.5553 119.836 83.4249L131.885 68.3462L143.247 75.6972L156.673 60.5583L164.376 69.2412L180.607 51.205C180.768 51.0407 180.986 50.9445 181.216 50.9366C181.446 50.9286 181.671 51.0095 181.842 51.1622C182.014 51.315 182.12 51.5279 182.137 51.7563C182.154 51.9847 182.082 52.2109 181.936 52.3877L164.362 71.911L156.673 63.2402L143.576 78.019L132.277 70.7117L121.236 84.5278C121.152 84.633 121.045 84.718 120.923 84.7762C120.801 84.8344 120.668 84.8643 120.533 84.8637V84.8637Z" fill="#81BCFD"/>
<path d="M182.708 53.1423C182.967 52.8534 183.136 52.4939 183.191 52.1094C183.247 51.7248 183.187 51.3325 183.019 50.9819C182.852 50.6314 182.584 50.3384 182.25 50.14C181.916 49.9417 181.53 49.8468 181.142 49.8675C180.754 49.8882 180.381 50.0235 180.07 50.2563C179.759 50.4891 179.524 50.8088 179.395 51.1752C179.265 51.5416 179.248 51.9381 179.344 52.3146C179.44 52.691 179.645 53.0305 179.934 53.2902C180.322 53.6382 180.832 53.8182 181.352 53.7904C181.872 53.7627 182.359 53.5296 182.708 53.1423V53.1423Z" fill="#81BCFD"/>
<path d="M120.532 77.7213C120.365 77.7214 120.202 77.6748 120.061 77.5868C119.919 77.4989 119.805 77.3732 119.732 77.2239C119.659 77.0747 119.629 76.9079 119.646 76.7425C119.663 76.5772 119.726 76.4198 119.827 76.2884L125.658 68.7683C125.775 68.6173 125.937 68.5079 126.121 68.4562C126.305 68.4044 126.5 68.4132 126.679 68.4811L140.075 73.5464C141.389 71.8308 145.951 66.1019 162.115 46.1054C162.216 45.9797 162.349 45.8838 162.501 45.8282C162.652 45.7725 162.815 45.7591 162.974 45.7894L173.875 47.8422L180.66 41.873C180.747 41.7957 180.85 41.7365 180.96 41.6987C181.071 41.6609 181.188 41.6453 181.305 41.6527C181.422 41.66 181.536 41.6903 181.641 41.7417C181.746 41.7931 181.84 41.8647 181.917 41.9523C181.994 42.04 182.054 42.142 182.092 42.2525C182.129 42.363 182.145 42.4799 182.138 42.5964C182.13 42.713 182.1 42.827 182.049 42.9319C181.997 43.0367 181.925 43.1305 181.838 43.2077L174.721 49.4626C174.62 49.553 174.499 49.6188 174.367 49.6547C174.236 49.6906 174.098 49.6958 173.964 49.6696L163.163 47.6351C154.515 58.3355 141.806 74.1057 141.136 75.058C141.03 75.2393 140.863 75.3773 140.665 75.4473C140.466 75.5173 140.249 75.5149 140.052 75.4404L126.671 70.3781L121.245 77.3767C121.161 77.4853 121.052 77.5729 120.929 77.6327C120.805 77.6925 120.669 77.7229 120.532 77.7213V77.7213Z" fill="#ED442E"/>
<path d="M182.545 44.0177C182.837 43.761 183.046 43.4235 183.145 43.0481C183.245 42.6726 183.231 42.276 183.106 41.9084C182.98 41.5408 182.748 41.2187 182.44 40.9828C182.131 40.747 181.759 40.6079 181.371 40.5833C180.984 40.5587 180.597 40.6496 180.261 40.8445C179.925 41.0394 179.655 41.3295 179.484 41.6783C179.312 42.027 179.249 42.4187 179.3 42.8038C179.351 43.1888 179.516 43.55 179.773 43.8416C179.943 44.0352 180.15 44.1933 180.382 44.307C180.613 44.4206 180.865 44.4875 181.122 44.5039C181.38 44.5202 181.638 44.4857 181.882 44.4023C182.126 44.3189 182.352 44.1882 182.545 44.0177V44.0177Z" fill="#81BCFD"/>
<path d="M120.532 74.8643C120.389 74.8644 120.248 74.83 120.121 74.7639C119.994 74.6978 119.885 74.6021 119.802 74.4848C119.72 74.3675 119.668 74.2321 119.649 74.0901C119.63 73.9481 119.646 73.8036 119.695 73.669L128.925 48.1723C129.005 47.9508 129.17 47.7701 129.383 47.6697C129.596 47.5692 129.84 47.5571 130.062 47.6361L142.356 52.0294C143.637 50.5342 147.704 46.0969 160.853 31.9366C160.998 31.78 161.195 31.6806 161.407 31.6567C161.619 31.6328 161.833 31.6859 162.009 31.8063L173.079 39.3659L180.708 33.0713C180.891 32.9319 181.121 32.8688 181.35 32.8954C181.579 32.922 181.789 33.0362 181.936 33.214C182.082 33.3918 182.154 33.6194 182.137 33.8492C182.12 34.0791 182.014 34.2932 181.842 34.4469L173.697 41.1687C173.548 41.2914 173.363 41.3625 173.17 41.3712C172.977 41.3799 172.787 41.3259 172.627 41.2172L161.638 33.7121C154.436 41.4687 144.048 52.7005 143.363 53.558C143.254 53.7263 143.091 53.8527 142.901 53.9168C142.711 53.9808 142.505 53.9788 142.316 53.911L130.298 49.6222L121.373 74.2765C121.31 74.449 121.196 74.5979 121.045 74.7031C120.895 74.8082 120.716 74.8645 120.532 74.8643V74.8643Z" fill="#397CF2"/>
<path d="M182.497 35.4879C182.796 35.2407 183.016 34.9101 183.128 34.5381C183.24 34.166 183.239 33.7691 183.125 33.3975C183.011 33.026 182.79 32.6966 182.489 32.4509C182.188 32.2052 181.821 32.0543 181.434 32.0172C181.047 31.9802 180.658 32.0587 180.316 32.2428C179.974 32.4269 179.694 32.7083 179.512 33.0515C179.33 33.3947 179.254 33.7842 179.293 34.1707C179.332 34.5573 179.485 34.9235 179.732 35.2231C180.064 35.6247 180.541 35.8782 181.06 35.9278C181.578 35.9775 182.095 35.8192 182.497 35.4879V35.4879Z" fill="#81BCFD"/>
<path d="M237.138 29.1511H203.21V32.3653H237.138V29.1511Z" fill="#E3E9F6"/>
<path d="M223.567 29.1511H203.21V32.3653H223.567V29.1511Z" fill="#3694FC"/>
<path d="M237.138 37.3652H203.21V40.9366H237.138V37.3652Z" fill="#E3E9F6"/>
<path d="M227.138 37.3652H203.21V40.9366H227.138V37.3652Z" fill="#3694FC"/>
<path d="M237.138 45.5793H203.21V49.1507H237.138V45.5793Z" fill="#E3E9F6"/>
<path d="M219.281 45.5793H203.21V49.1507H219.281V45.5793Z" fill="#3694FC"/>
<path d="M237.138 53.7935H203.21V57.3648H237.138V53.7935Z" fill="#E3E9F6"/>
<path d="M228.567 53.7935H203.21V57.3648H228.567V53.7935Z" fill="#3694FC"/>
<path d="M237.138 62.3645H203.21V65.5787H237.138V62.3645Z" fill="#E3E9F6"/>
<path d="M225.71 62.3645H203.21V65.5787H225.71V62.3645Z" fill="#3694FC"/>
<path d="M200.353 28.4368H199.639V66.2929H200.353V28.4368Z" fill="#C3DFFE"/>
<path d="M144.104 95.9351H116.607C116.508 95.9351 116.427 96.0021 116.427 96.0849V96.8566C116.427 96.9394 116.508 97.0065 116.607 97.0065H144.104C144.203 97.0065 144.284 96.9394 144.284 96.8566V96.0849C144.284 96.0021 144.203 95.9351 144.104 95.9351Z" fill="#52A3FC"/>
<path d="M144.104 98.7922H116.607C116.508 98.7922 116.427 98.8593 116.427 98.9421V99.7138C116.427 99.7966 116.508 99.8636 116.607 99.8636H144.104C144.203 99.8636 144.284 99.7966 144.284 99.7138V98.9421C144.284 98.8593 144.203 98.7922 144.104 98.7922Z" fill="#52A3FC"/>
<path d="M144.104 101.649H116.607C116.508 101.649 116.427 101.716 116.427 101.799V102.571C116.427 102.654 116.508 102.721 116.607 102.721H144.104C144.203 102.721 144.284 102.654 144.284 102.571V101.799C144.284 101.716 144.203 101.649 144.104 101.649Z" fill="#52A3FC"/>
<path d="M130.175 104.506H116.607C116.508 104.506 116.427 104.573 116.427 104.656V105.428C116.427 105.511 116.508 105.578 116.607 105.578H130.175C130.275 105.578 130.355 105.511 130.355 105.428V104.656C130.355 104.573 130.275 104.506 130.175 104.506Z" fill="#52A3FC"/>
<path d="M263.995 30.9816L250.854 31.9604L252.236 50.5111L265.377 49.5322L263.995 30.9816Z" fill="#F8BC3F"/>
<path d="M286.798 40.4768L274.223 36.5361L268.66 54.2869L281.235 58.2276L286.798 40.4768Z" fill="#81BCFD"/>
<path d="M266.098 76.6605L252.957 77.6394L254.338 96.1901L267.48 95.2112L266.098 76.6605Z" fill="#F8BC3F"/>
<path d="M258.939 57.1013L249.59 54.1716L245.455 67.3679L254.803 70.2975L258.939 57.1013Z" fill="#52A3FC"/>
<path d="M272.899 58.4365L263.518 61.2583L267.501 74.5014L276.882 71.6796L272.899 58.4365Z" fill="#81BCFD"/>
</g>
<path d="M51.3144 0.102646C51.6588 -0.122618 52.0051 0.0914761 52.3513 0.102646C52.3383 3.99078 52.316 7.87892 52.316 11.7671C52.316 14.7709 52.3588 17.7747 52.3606 20.7776C52.3675 32.1823 52.3637 43.5867 52.3495 54.9908C52.3495 55.7867 52.5021 56.1357 53.3734 56.2875C55.344 56.6272 56.1771 57.7349 56.219 59.7446C56.2246 60.0034 56.232 60.2631 56.2348 60.5219C56.2497 62.0196 56.2348 62.0643 57.6032 62.4068C60.6303 63.1655 63.3279 64.6083 65.9044 66.3164C68.9567 68.3326 71.4597 70.8775 73.2767 74.0712C74.2954 75.8474 75.0344 77.7697 75.4679 79.7708C75.561 80.199 75.5452 80.6579 76.0106 80.9902C76.3308 81.2183 76.1446 81.5701 75.736 81.6297C75.4307 81.6744 75.1151 81.6474 74.8052 81.6474H39.5448C35.8518 81.6474 32.1595 81.6455 28.4677 81.6418C28.1513 81.6418 27.7491 81.7973 27.5509 81.4128C27.3526 81.0284 27.7491 80.9241 27.9483 80.7128C28.0731 80.5806 28.0749 80.3265 28.1168 80.1245C29.2106 74.774 32.1083 70.5824 36.3911 67.2938C39.496 64.9036 43.0429 63.151 46.8277 62.1369C47.2773 62.015 47.4793 61.839 47.4393 61.3541C47.3964 60.8384 47.4272 60.3171 47.4281 59.7986C47.4281 57.7387 48.2463 56.6626 50.2932 56.2903C51.131 56.1385 51.3321 55.8462 51.3302 55.0169C51.2985 44.126 51.2951 33.2351 51.32 22.3442C51.3283 19.1505 51.3795 15.9531 51.3609 12.7631C51.3395 8.53982 51.3749 4.31937 51.3144 0.102646Z" fill="#E3E9F6" fill-opacity="0.3"/>
<path d="M12.9468 1.59474C13.133 1.47279 13.3192 1.58822 13.51 1.59474C13.5035 3.70868 13.4914 5.82263 13.4914 7.93658C13.4914 9.56928 13.5146 11.202 13.5156 12.8347C13.5193 19.0353 13.5171 25.2357 13.5091 31.4357C13.5091 31.8677 13.5919 32.0585 14.0676 32.1404C15.139 32.3266 15.5923 32.9269 15.6146 34.0198C15.6146 34.1612 15.6221 34.299 15.623 34.4424C15.6314 35.2569 15.623 35.2801 16.3677 35.4663C18.0134 35.8787 19.4804 36.6634 20.8814 37.5895C22.5401 38.6861 23.901 40.0702 24.884 41.8053C25.4381 42.771 25.8402 43.8161 26.0764 44.9041C26.1257 45.1368 26.1174 45.3863 26.3705 45.5669C26.5446 45.6916 26.4441 45.8824 26.2216 45.915C26.0532 45.9302 25.884 45.9334 25.7152 45.9243H6.55006C4.54192 45.9243 2.5344 45.9243 0.527501 45.9243C0.355295 45.9243 0.137491 46.009 0.0295127 45.7996C-0.0784652 45.5902 0.136543 45.5343 0.245452 45.4189C0.313404 45.3472 0.314335 45.2094 0.338537 45.0987C0.933346 42.1907 2.50834 39.9111 4.83731 38.1239C6.52642 36.8237 8.45625 35.8708 10.5155 35.3201C10.7593 35.2541 10.8692 35.1582 10.8469 34.8938C10.8236 34.6146 10.8413 34.3353 10.8413 34.0486C10.8413 32.9316 11.2862 32.3442 12.3995 32.1413C12.8537 32.0585 12.9636 31.9002 12.9627 31.4488C12.9453 25.528 12.9434 19.6069 12.9571 13.6855C12.9571 11.9494 12.9896 10.2106 12.9794 8.47274C12.9608 6.18007 12.9841 3.8874 12.9468 1.59474Z" fill="#E3E9F6" fill-opacity="0.3"/>
</svg>
