<svg width="318" height="230" viewBox="0 0 318 230" fill="none" xmlns="http://www.w3.org/2000/svg">
<path d="M20.7558 42.7497C20.7558 42.7497 17.3455 15.5488 43.4926 18.4421C43.4926 18.4421 47.4717 -2.97168 73.0499 1.07931C73.0499 1.07931 51.4503 4.55175 50.3132 20.1783C50.3132 20.1783 46.9029 27.1232 40.0817 31.1747L41.2183 24.2299C41.2188 24.2299 26.4399 24.2299 20.7558 42.7497Z" fill="#5B5B5B"/>
<path d="M294.21 2.91478C294.21 2.91478 308.711 1.17514 308.15 15.6725C308.15 15.6725 319.363 16.2522 316.56 32.4898C316.56 32.4898 313.515 19.8079 305.907 19.1524C305.907 19.1524 303.08 17.8676 300.861 13.9334L304.225 14.5131C304.225 14.5131 304.354 6.19341 294.21 2.91478Z" fill="#5B5B5B"/>
<path d="M120.93 156.75L114.66 214.32L106.11 221.16L97.5601 223.44L86.7301 227.43L73.6201 228.57L55.3801 229.14H0.0900879V201.78L59.0965 194.746H59.1022L75.0337 183.785L90.0646 183.443L100.41 173.28L111.24 175.56L120.93 156.75Z" fill="#5B5B5B"/>
<path d="M16.6201 160.74L31.4401 159.03L42.2701 155.61L84.4501 149.91L99.2701 155.61L120.93 156.75L111.24 175.56L100.41 173.28L90.1501 183.54L74.7601 184.11L59.3701 194.94L0.0900879 201.78L16.6201 160.74Z" fill="#5B5B5B"/>
<path d="M120.93 156.75L114.66 214.32L106.11 221.16L111.24 175.56L120.93 156.75Z" fill="#5B5B5B"/>
<path d="M111.24 175.56L106.11 221.16L97.5601 223.44L100.41 173.28L111.24 175.56Z" fill="#5B5B5B"/>
<path d="M55.3801 229.14H0.0900879V201.78L59.3701 194.94L55.3801 229.14Z" fill="#5B5B5B"/>
<path d="M100.41 173.28L97.56 223.44L86.73 227.43L90.15 183.54L100.41 173.28Z" fill="#5B5B5B"/>
<path d="M90.1501 183.54L86.7301 227.43L73.6201 228.57L74.7601 184.11L90.1501 183.54Z" fill="#5B5B5B"/>
<path d="M74.7601 184.11L73.6201 228.57L55.3801 229.14L59.3701 194.94L74.7601 184.11Z" fill="#5B5B5B"/>
<path d="M108.19 42.5717C108.189 42.5717 108.187 42.5745 108.185 42.5745V42.5722L103.014 42.9302L103.474 49.5776L108.645 49.2196V49.2173C108.646 49.2173 108.649 49.2196 108.65 49.2196C109.055 49.1917 109.28 47.6806 109.153 45.8452C109.026 44.0092 108.595 42.5438 108.19 42.5717Z" fill="#616161"/>
<path d="M103.474 49.5708C103.881 49.5425 104.109 48.0315 103.982 46.1959C103.855 44.3603 103.421 42.8952 103.013 42.9234C102.605 42.9517 102.377 44.4627 102.505 46.2983C102.632 48.1339 103.066 49.599 103.474 49.5708Z" fill="#424242"/>
<path d="M103.602 46.2284C103.512 44.9191 103.303 43.8578 103.116 43.6993C103.085 43.6674 103.065 43.668 103.065 43.668L90.3293 44.5498L90.6873 49.7202L103.423 48.8384C103.423 48.8384 103.442 48.8356 103.468 48.8002C103.631 48.619 103.693 47.5383 103.602 46.2284Z" fill="#616161"/>
<path d="M90.6857 49.7143C90.9784 49.6941 91.1355 48.5203 91.0366 47.0926C90.9377 45.665 90.6203 44.5241 90.3276 44.5443C90.0349 44.5646 89.8778 45.7384 89.9767 47.1661C90.0755 48.5937 90.393 49.7346 90.6857 49.7143Z" fill="#424242"/>
<path d="M90.2878 45.2951L79.3962 46.0492L79.6522 49.7422L90.5437 48.9881C90.7284 48.9755 90.8208 48.1382 90.7501 47.1185C90.6794 46.0988 90.4725 45.2825 90.2878 45.2951Z" fill="#616161"/>
<path opacity="0.2" d="M88.7311 171.946C88.7311 171.946 55.0332 193.447 41.4148 195.029C39.4432 195.258 32.4379 195.226 32.0098 193.288C31.5965 191.416 36.9927 189.377 38.8498 188.902C50.5348 185.909 74.4748 169.949 74.4748 169.949L88.7311 171.946Z" fill="url(#paint0_linear_94_116)"/>
<path opacity="0.2" d="M64.0262 166.632C64.0262 166.632 12.4401 189.781 16.0499 186.785C23.8862 180.28 50.4779 165.377 50.4779 165.377L64.0262 166.632Z" fill="url(#paint1_linear_94_116)"/>
<path d="M78.9146 54.8655C78.478 55.8687 77.3699 56.8953 74.7957 58.4183C74.7957 58.4183 73.7658 58.9256 74.281 61.4638H65.014C65.014 61.4638 66.4817 60.5957 67.4228 58.4211C67.954 57.1945 67.7243 55.7855 66.9109 54.7196C65.8616 53.3447 64.4993 51.0431 64.4993 45.729C64.4993 39.6385 68.9761 37.6258 72.6742 37.6201C77.9741 37.6116 80.4593 41.161 80.4593 47.7593C80.4593 50.1288 80.1572 52.0149 78.9146 54.8655Z" fill="#FFCCBC"/>
<path d="M66.495 54.9688C65.5568 53.5232 64.5 51.6234 64.5 46.2597C64.5 40.1123 67.9913 37.0651 73.4171 37.0508C77.9663 37.0388 79.8803 40.2468 80.3791 43.3208C80.3791 43.3208 79.4306 43.1378 78.7318 43.8555C77.7343 44.8803 78.5032 46.1913 78.4251 47.345C78.3567 48.3568 77.8414 48.7706 77.4493 48.9855C76.6296 45.7256 74.7993 45.9172 74.1364 46.5983C73.1389 47.6232 73.7408 50.5102 74.7594 51.2849C74.7594 53.334 74.4351 55.0292 72.9388 56.054C70.2633 57.8854 67.4925 56.5055 66.495 54.9688Z" fill="#6D4C41"/>
<path d="M94.6096 60.4708C89.1787 53.335 87.8312 46.8359 87.5952 45.4701C87.569 45.3179 87.451 45.1988 87.2977 45.168C83.9141 44.6818 81.9704 45.6389 81.9704 45.6389C81.4067 45.9569 81.3657 46.8769 81.4267 47.5141C81.6102 49.4345 81.0305 49.5901 81.0305 49.5901C81.0305 50.4405 81.8331 50.7757 82.5228 51.2858L83.9615 51.975C83.9615 51.975 85.9895 53.9734 90.0462 62.4675C90.6493 63.7335 95.4601 61.5886 94.6096 60.4708Z" fill="#FFCCBC"/>
<path d="M55.5388 64.8564L55.3798 93.4807L53.6322 90.7641C52.9048 89.314 52.5298 87.6912 52.5298 86.0707V73.5307C52.5298 71.428 52.9898 69.4632 53.8579 67.6016C54.3093 66.628 54.8713 65.7097 55.5388 64.8564Z" fill="#FF7D7D"/>
<path d="M74.1899 165.87V169.79C74.1899 169.79 74.1899 172.14 76.4699 172.14C80.9861 172.14 88.4399 172.14 88.4399 172.14C88.4399 172.14 89.0362 169.091 85.0764 168.411C79.3199 167.58 79.3199 165.87 79.3199 165.87H74.1899Z" fill="#607D8B"/>
<path d="M63.8843 166.544L51.8413 168.049C51.0097 168.049 50.3359 167.375 50.3359 166.544L50.8375 163.533L55.8552 162.529C56.4583 163.735 58.7526 164.438 60.0926 164.289L60.189 164.28C61.7861 164.135 63.2886 165.056 63.8843 166.544Z" fill="#607D8B"/>
<path d="M50.8376 163.532L55.8554 162.529L56.52 158.46H51.39L50.8376 163.532Z" fill="#FFCCBC"/>
<path d="M56.0087 101.555C56.0087 101.555 53.8917 119.81 54.525 132.084C52.1749 140.052 50.25 159.031 50.25 159.031H57.09C57.09 159.031 65.1378 132.542 67.8727 121.602C68.8765 117.588 68.8559 102.839 68.8559 102.839L56.0087 101.555Z" fill="#01579B"/>
<path d="M73.6199 159.995L74.1899 165.87H79.3199V159.425L73.6199 159.995Z" fill="#FFCCBC"/>
<path d="M81.6336 103.739L80.7239 159.836L74.1051 160.309L72.0986 160.452C72.0986 160.452 70.1971 148.119 68.8565 135.057C65.3556 124.939 63.8114 112.13 62.0632 99.7168L81.6336 103.739Z" fill="#1A68A5"/>
<path d="M81.6334 78.4326V103.739L67.7061 102.424L81.6334 78.4326Z" fill="#FF7D7D"/>
<path d="M82.134 74.9935L94.8763 73.459C98.4793 73.0087 100.425 68.9954 98.5477 65.8849L94.4745 59.2803L89.1592 61.9393L90.1556 63.7377C90.42 64.1868 89.9093 64.6924 89.463 64.4222L85.4924 62.0157C83.2722 60.9703 80.8788 60.341 78.4318 60.1592L67.8765 59.3755C63.0355 59.0033 58.5143 60.7851 55.5383 64.8321C55.4654 64.9313 54.5351 81.2897 54.5351 91.6568C54.5351 95.8463 53.5895 97.6122 51.3312 99.2948C49.7597 100.465 49.1099 100.89 49.1099 100.89C49.1099 100.89 49.8577 102.845 53.3849 105.913C55.593 107.834 61.2378 108.266 65.8536 108.266C70.4695 108.266 74.7599 110.58 74.7599 110.58C74.7599 110.58 80.3464 95.9062 81.2402 88.5811C82.1339 81.2561 82.134 74.9935 82.134 74.9935Z" fill="#FF7D7D"/>
<path d="M51.3306 99.3008C49.7597 100.471 49.1099 100.891 49.1099 100.891C49.1099 100.891 49.8577 102.85 53.3849 105.916C55.593 107.836 61.2378 108.267 65.8536 108.267C70.4695 108.267 74.7599 110.581 74.7599 110.581C74.7599 110.581 75.2939 109.436 75.9774 107.487C69.6299 101.95 57.2797 108.125 51.3306 99.3008Z" fill="#FF7D7D"/>
<path d="M89.1592 61.965L94.4744 59.3076L96.0528 62.0875L90.1555 63.7622L89.1592 61.965Z" fill="#FF7D7D"/>
<defs>
<linearGradient id="paint0_linear_94_116" x1="60.3592" y1="195.126" x2="60.3592" y2="169.949" gradientUnits="userSpaceOnUse">
<stop stop-color="white" stop-opacity="0"/>
<stop offset="0.1417" stop-color="#E6E2E0" stop-opacity="0.1511"/>
<stop offset="0.9379" stop-color="#5D4037"/>
<stop offset="0.9428" stop-color="#553A32"/>
<stop offset="0.9545" stop-color="#482F29"/>
<stop offset="0.9696" stop-color="#402924"/>
<stop offset="1" stop-color="#3E2723"/>
</linearGradient>
<linearGradient id="paint1_linear_94_116" x1="39.9476" y1="187.053" x2="39.9476" y2="165.377" gradientUnits="userSpaceOnUse">
<stop stop-color="white" stop-opacity="0"/>
<stop offset="0.2276" stop-color="#D2CDCC" stop-opacity="0.2276"/>
<stop offset="1" stop-color="#3E2723"/>
</linearGradient>
</defs>
</svg>
